<?xml version="1.0" encoding="utf-8"?>
<!-- Generator: Adobe Illustrator 18.1.1, SVG Export Plug-In . SVG Version: 6.00 Build 0)  -->
<svg version="1.1" id="Layer_1" xmlns="http://www.w3.org/2000/svg" xmlns:xlink="http://www.w3.org/1999/xlink" x="0px" y="0px"
	 viewBox="0 0 128 128" enable-background="new 0 0 128 128" xml:space="preserve">
<circle fill="#E8702E" cx="64" cy="64" r="64"/>
<g>
	<defs>
		<circle id="SVGID_1_" cx="64" cy="64" r="64"/>
	</defs>
	<clipPath id="SVGID_2_">
		<use xlink:href="#SVGID_1_"  overflow="visible"/>
	</clipPath>
	<g opacity="0.5" clip-path="url(#SVGID_2_)">
		<g>
			<path fill="#FFFFFF" d="M105.9,119.3l-2.4-16c-0.5-3.1-3.8-7-6.5-8.3c-0.5-0.3-1-0.6-1.5-0.9c-2.8-1.3-18.5-9-18.5-9v-0.2
				c17.5-3.9,21.4-15.1,21.4-15.1S85.1,68,88.2,48.5c0.3-1.6,0.3-2.9,0.2-4.3C88.6,33.7,79.7,24,64.3,24c-15.4,0-24.4,9.7-24.1,20.2
				c-0.1,1.3-0.1,2.7,0.2,4.2C43.5,68,30,69.9,30,69.9s1.5,4.6,7.1,8.9c3.7,1.5,7.8,3.1,11.9,4.7c0.9,0.3,1.8,0.8,2.7,1.4h-0.1
				c-1.4,3.2-17.8,8.7-20.5,9.9c-2.7,1.2-6.2,5.3-6.7,8.4L22,119.4c0,4.7,16.5,8.6,41.9,8.6c25.4,0,42-3.8,42-8.6
				C106,119.4,105.9,119.4,105.9,119.3z"/>
		</g>
	</g>
</g>
</svg>
