<?xml version="1.0" encoding="utf-8"?>
<!-- Generator: Adobe Illustrator 18.1.1, SVG Export Plug-In . SVG Version: 6.00 Build 0)  -->
<svg version="1.1" id="Layer_1" xmlns="http://www.w3.org/2000/svg" xmlns:xlink="http://www.w3.org/1999/xlink" x="0px" y="0px"
	 viewBox="0 0 128 128" enable-background="new 0 0 128 128" xml:space="preserve">
<circle fill="#00B0B9" cx="64" cy="64" r="64"/>
<g>
	<defs>
		<circle id="SVGID_1_" cx="64" cy="64" r="64"/>
	</defs>
	<clipPath id="SVGID_2_">
		<use xlink:href="#SVGID_1_"  overflow="visible"/>
	</clipPath>
	<path opacity="0.5" clip-path="url(#SVGID_2_)" fill="#FFFFFF" d="M105.4,101.4c-0.5-3.4-4.2-7.8-7-9.1c-2.8-1.3-20-7.3-21.5-10.7
		c-1.5-3.4,0-10.8,0-10.8c1.7-2.7,3.1-5.8,4.2-9.1c0.1,0,0.1,0.1,0.2,0.1c2.6,0,4.8-3.7,5.3-6.8c0.6-3.4,0.5-6.5-2.1-6.5
		c-0.2,0-0.3,0-0.5,0.1C88.5,37,80.4,20.1,64,20.1c-16.4,0-24.5,16.9-20.2,28.3c-0.2,0-0.4-0.1-0.5-0.1c-2.6,0-2.7,3.1-2.1,6.5
		c0.6,3.2,2.8,6.8,5.3,6.8c0.1,0,0.2,0,0.2-0.1c1.1,3.3,2.5,6.4,4.2,9.1c0,0,1.5,7.4,0,10.8C49.6,85,32.4,91,29.6,92.3
		c-2.8,1.3-6.5,5.7-7,9.1L20,118.8c0,5.1,17.4,9.2,44,9.2c26.7,0,44-4.1,44-9.2c0-0.1,0-0.1,0-0.1L105.4,101.4z"/>
</g>
</svg>
